<?xml version="1.0" encoding="UTF-8"?>
<svg id="Livello_2" data-name="Livello 2" xmlns="http://www.w3.org/2000/svg" viewBox="0 0 243.35 252.26">
  <defs>
    <style>
      .cls-1 {
        fill: #f3ac40;
      }

      .cls-1, .cls-2, .cls-3, .cls-4, .cls-5, .cls-6, .cls-7, .cls-8, .cls-9, .cls-10, .cls-11, .cls-12, .cls-13, .cls-14, .cls-15, .cls-16, .cls-17, .cls-18, .cls-19, .cls-20, .cls-21, .cls-22, .cls-23, .cls-24, .cls-25, .cls-26, .cls-27, .cls-28, .cls-29, .cls-30, .cls-31, .cls-32, .cls-33, .cls-34, .cls-35, .cls-36, .cls-37, .cls-38, .cls-39, .cls-40, .cls-41, .cls-42, .cls-43, .cls-44, .cls-45, .cls-46, .cls-47, .cls-48, .cls-49 {
        stroke-width: 0px;
      }

      .cls-2 {
        fill: #2ab4cf;
      }

      .cls-3 {
        fill: #2bbeda;
      }

      .cls-4 {
        fill: #2bbbd7;
      }

      .cls-5 {
        fill: #2bbad6;
      }

      .cls-6 {
        fill: #2bbbd8;
      }

      .cls-7 {
        fill: #2bbdd9;
      }

      .cls-8 {
        fill: #2cbfdc;
      }

      .cls-9 {
        fill: #2cc1dd;
      }

      .cls-10 {
        fill: #2cc1de;
      }

      .cls-11 {
        fill: #2cc0dd;
      }

      .cls-12 {
        fill: #3a8cdf;
      }

      .cls-13 {
        fill: #3a8ee2;
      }

      .cls-14 {
        fill: #3c92e9;
      }

      .cls-15 {
        fill: #cc923b;
      }

      .cls-16 {
        fill: #da5295;
      }

      .cls-17 {
        fill: #aecf50;
      }

      .cls-18 {
        fill: #e2a13e;
      }

      .cls-19 {
        fill: #c0e556;
      }

      .cls-20 {
        fill: #c0e456;
      }

      .cls-21 {
        fill: #c2e757;
      }

      .cls-22 {
        fill: #bbde54;
      }

      .cls-23 {
        fill: #bade54;
      }

      .cls-24 {
        fill: #c1e656;
      }

      .cls-25 {
        fill: #a0bf4c;
      }

      .cls-26 {
        fill: #7e63e4;
      }

      .cls-27 {
        fill: #7f64e7;
      }

      .cls-28 {
        fill: #7f64e6;
      }

      .cls-29 {
        fill: #ee9142;
      }

      .cls-30 {
        fill: #f2ab40;
      }

      .cls-31 {
        fill: #ef6468;
      }

      .cls-32 {
        fill: #eb9042;
      }

      .cls-33 {
        fill: #ef9243;
      }

      .cls-34 {
        fill: #ea8f42;
      }

      .cls-35 {
        fill: #eb589e;
      }

      .cls-36 {
        fill: #e5a33e;
      }

      .cls-37 {
        fill: #f16468;
      }

      .cls-38 {
        fill: #f0aa3f;
      }

      .cls-39 {
        fill: #e78d41;
      }

      .cls-40 {
        fill: #e8579d;
      }

      .cls-41 {
        fill: #f2ac40;
      }

      .cls-42 {
        fill: #f06468;
      }

      .cls-43 {
        fill: #f09243;
      }

      .cls-44 {
        fill: #f1ab3f;
      }

      .cls-45 {
        fill: #f1ab40;
      }

      .cls-46 {
        fill: #f26468;
      }

      .cls-47 {
        fill: #ed9042;
      }

      .cls-48 {
        fill: #e9579d;
      }

      .cls-49 {
        fill: #eb6266;
      }
    </style>
  </defs>
  <g id="Livello_1-2" data-name="Livello 1">
    <g>
      <path class="cls-1" d="M79.07,227.03c.06,6.97-5.47,12.61-12.43,12.69-6.94.08-12.6-5.51-12.64-12.47-.04-6.94,5.54-12.67,12.42-12.72,6.87-.06,12.6,5.6,12.66,12.5Z"/>
      <path class="cls-46" d="M33.54,75.72c-6.64-.08-12.03-5.53-12.05-12.2-.03-6.77,5.54-12.19,12.42-12.1,6.72.09,12.08,5.5,12.05,12.15-.03,6.79-5.6,12.24-12.42,12.16Z"/>
      <path class="cls-1" d="M47.46,83.55c6.79-.04,12.15,5.27,12.16,12.02,0,6.72-5.41,12.13-12.13,12.11-6.5-.02-11.91-5.37-12.04-11.92-.14-6.65,5.3-12.18,12.02-12.22Z"/>
      <path class="cls-21" d="M11.16,152.91c-6.18,0-11.07-4.8-11.16-10.96-.1-6.67,5.61-12.44,12.3-12.43,6.17,0,11.03,4.82,11.09,10.99.08,6.78-5.46,12.39-12.23,12.39Z"/>
      <path class="cls-14" d="M213.22,167.21c0-6.13,4.61-10.88,10.68-10.97,6.32-.09,11.99,5.48,12.09,11.88.09,6.15-4.81,11.14-10.93,11.13-6.47-.01-11.82-5.46-11.83-12.04Z"/>
      <path class="cls-43" d="M15.9,184.84c-6.18-.03-11.28-5.23-11.15-11.35.13-6.09,5.08-11.01,11.12-11.05,6.14-.05,11.33,5.08,11.33,11.19,0,6.14-5.14,11.23-11.3,11.21Z"/>
      <path class="cls-27" d="M187.85,224.74c-.01,5.91-4.69,10.74-10.47,10.81-6.14.08-11.4-5.27-11.41-11.59,0-5.87,4.74-10.77,10.49-10.82,6.14-.06,11.41,5.31,11.39,11.59Z"/>
      <path class="cls-1" d="M89.39,241.65c0-5.96,4.62-10.6,10.53-10.6,5.9,0,10.58,4.67,10.6,10.57.02,5.86-4.71,10.62-10.57,10.63-5.88.02-10.57-4.69-10.56-10.61Z"/>
      <path class="cls-35" d="M149.8,230.23c5.72.08,10.41,4.78,10.43,10.48.02,5.79-4.87,10.59-10.73,10.52-5.72-.07-10.39-4.78-10.39-10.49,0-5.9,4.77-10.58,10.7-10.5Z"/>
      <path class="cls-46" d="M102.99,115.55c.06,5.83-4.46,10.47-10.28,10.55-5.81.08-10.49-4.47-10.56-10.27-.07-5.76,4.54-10.51,10.29-10.59,5.74-.07,10.5,4.58,10.56,10.31Z"/>
      <path class="cls-21" d="M145.98,62.13c5.44.01,9.79,4.38,9.69,9.75-.09,5.56-4.78,10.07-10.37,9.99-5.26-.08-9.48-4.34-9.51-9.61-.03-5.61,4.53-10.14,10.19-10.13Z"/>
      <path class="cls-28" d="M209.46,193.78c.05,5.35-4.11,9.6-9.41,9.63-5.38.03-9.97-4.56-10.02-10.01-.05-5.26,4.23-9.62,9.46-9.66,5.33-.04,9.93,4.59,9.97,10.03Z"/>
      <path class="cls-41" d="M95.68,51.38c-.05,5.2-4.26,9.26-9.47,9.13-5.1-.13-8.96-4.15-8.92-9.31.03-5.14,3.97-9.08,9.1-9.11,5.25-.03,9.34,4.06,9.29,9.29Z"/>
      <path class="cls-9" d="M194.7,81.16c5.09.02,9.28,4.15,9.19,9.06-.08,4.93-4.29,8.98-9.33,8.99-5.08,0-9.28-4.13-9.2-9.04.08-4.93,4.33-9.02,9.34-9Z"/>
      <path class="cls-10" d="M178.38,66.81c-4.99-.09-8.76-3.83-8.68-8.63.08-4.94,4.48-9.03,9.69-9.01,4.96.02,9.01,3.83,8.97,8.43-.05,4.96-4.75,9.31-9.98,9.21Z"/>
      <path class="cls-33" d="M83.94,177.73c4.8-.03,8.76,3.71,8.73,8.23-.03,4.88-4.47,9.08-9.65,9.14-4.92.05-8.73-3.51-8.7-8.16.03-4.84,4.56-9.18,9.62-9.22Z"/>
      <path class="cls-11" d="M171.98,34.72c-4.68.06-8.57-3.75-8.61-8.44-.05-4.86,3.96-8.9,8.92-9.01,4.83-.1,8.67,3.46,8.8,8.17.14,4.84-4.16,9.21-9.11,9.28Z"/>
      <path class="cls-24" d="M179.12,122.72c4.57.07,8.15,3.78,8.11,8.4-.05,5.08-4.43,9.26-9.52,9.09-4.61-.15-8.06-3.87-7.93-8.54.14-4.95,4.4-9.03,9.34-8.95Z"/>
      <path class="cls-9" d="M213.1,69.72c-4.71.06-8.49-3.6-8.62-8.31-.13-4.88,3.59-8.79,8.43-8.84,4.68-.06,8.52,3.64,8.64,8.33.13,4.84-3.63,8.77-8.45,8.83Z"/>
      <path class="cls-33" d="M154.96,147.38c4.69.06,8.4,3.87,8.35,8.57-.05,4.73-3.79,8.39-8.55,8.34-4.7-.04-8.43-3.85-8.37-8.55.06-4.68,3.91-8.43,8.58-8.37Z"/>
      <path class="cls-9" d="M238.14,87.41c.07,4.48-3.41,8.09-7.92,8.19-4.9.12-9.02-3.88-9.04-8.76-.02-4.57,3.41-7.96,8.04-7.96,4.83,0,8.84,3.84,8.92,8.53Z"/>
      <path class="cls-30" d="M70.35,32.92c-4.37.05-8.1-3.58-8.18-7.96-.07-4.24,3.44-7.87,7.75-7.99,4.36-.13,8.18,3.48,8.3,7.83.13,4.5-3.33,8.07-7.87,8.12Z"/>
      <path class="cls-28" d="M227.32,128.97c.06-4.52,3.64-7.97,8.17-7.87,4.31.1,7.84,3.65,7.86,7.91.03,4.41-3.62,8.06-8.06,8.08-4.39.02-8.03-3.69-7.97-8.13Z"/>
      <path class="cls-33" d="M80.32,90.54c-4.23-.02-7.53-3.27-7.47-7.34.06-4.25,3.92-7.99,8.26-8.04,4.2-.04,7.63,3.18,7.65,7.2.03,4.38-3.93,8.2-8.45,8.18Z"/>
      <path class="cls-30" d="M46.62,38.57c-.07-4.27,3.25-7.7,7.51-7.75,4.19-.06,7.77,3.4,7.81,7.53.05,4.12-3.47,7.72-7.59,7.79-4.21.06-7.66-3.32-7.73-7.57Z"/>
      <path class="cls-41" d="M33.62,216.55c-3.86-.02-6.85-3.1-6.86-7.08,0-4.34,3.7-8.16,7.98-8.25,3.85-.07,7.12,3.33,7.05,7.33-.08,4.36-3.82,8.02-8.18,8Z"/>
      <path class="cls-37" d="M113.84,155.41c-.07,4.11-3.48,7.38-7.55,7.25-3.94-.13-7.17-3.44-7.18-7.34,0-4.1,3.34-7.42,7.44-7.38,4.16.04,7.36,3.32,7.29,7.48Z"/>
      <path class="cls-30" d="M81.74,151.68c-.13,4.06-3.35,7.24-7.27,7.15-3.98-.09-7.18-3.61-7.04-7.77.13-4.05,3.39-7.24,7.28-7.14,4.03.11,7.16,3.57,7.03,7.76Z"/>
      <path class="cls-45" d="M22.33,103.48c-.03,3.96-3.35,7.16-7.33,7.08-3.82-.08-6.96-3.29-6.95-7.1,0-3.96,3.33-7.17,7.32-7.07,3.86.1,7,3.3,6.97,7.09Z"/>
      <path class="cls-29" d="M121.82,212.43c-.07,3.63-3.43,6.65-7.39,6.63-3.83-.01-6.85-2.78-6.85-6.26,0-3.75,3.56-6.95,7.58-6.84,3.8.11,6.72,2.95,6.66,6.47Z"/>
      <path class="cls-42" d="M133.7,229.41c-.06,3.8-3.09,7.04-6.57,7.01-3.32-.03-5.98-3.08-5.9-6.75.08-3.81,3.17-7.11,6.58-7.04,3.32.06,5.94,3.09,5.89,6.78Z"/>
      <path class="cls-8" d="M169.17,104.57c.06,3.84-2.89,6.93-6.6,6.9-3.2-.03-5.72-2.67-5.8-6.08-.08-3.67,2.73-6.76,6.27-6.91,3.32-.13,6.08,2.61,6.13,6.09Z"/>
      <path class="cls-19" d="M137.78,182.77c-.08,3.43-3.13,6.21-6.68,6.09-3.23-.1-5.8-2.65-5.8-5.75,0-3.43,3-6.3,6.53-6.26,3.39.04,6.02,2.66,5.94,5.92Z"/>
      <path class="cls-40" d="M153.67,211.77c.02,3.22-2.86,5.9-6.37,5.92-3.49.03-6.35-2.62-6.36-5.88,0-3.29,2.83-5.98,6.29-5.96,3.41.02,6.41,2.79,6.44,5.92Z"/>
      <path class="cls-31" d="M104.09,19.07c-.06,3.46-2.91,6.44-6.05,6.32-3.14-.11-5.82-3.25-5.69-6.67.13-3.45,2.69-6.11,5.84-6.08,3.27.03,5.96,2.96,5.89,6.43Z"/>
      <path class="cls-44" d="M36.05,114.32c3.39,0,6.01,2.78,5.97,6.31-.04,3.48-2.8,6.26-6.13,6.18-3.18-.07-5.79-2.83-5.83-6.16-.05-3.46,2.68-6.33,6-6.33Z"/>
      <path class="cls-48" d="M134.18,112.16c.04,3.14-2.55,5.78-5.64,5.76-3.18-.02-5.82-2.74-5.86-6.02-.04-3.12,2.26-5.65,5.23-5.77,3.22-.13,6.23,2.76,6.27,6.03Z"/>
      <path class="cls-38" d="M58.49,168.62c3.12.05,5.63,2.71,5.57,5.92-.06,3.15-2.71,5.78-5.79,5.74-3.14-.04-5.62-2.69-5.55-5.92.07-3.22,2.65-5.79,5.77-5.74Z"/>
      <path class="cls-20" d="M116.32,69.27c-.02,3.17-2.59,5.74-5.75,5.74-3.17,0-5.72-2.57-5.71-5.76,0-3.21,2.54-5.73,5.74-5.71,3.21.02,5.74,2.55,5.72,5.74Z"/>
      <path class="cls-26" d="M201.86,220.97c-2.73.04-4.84-2.22-4.89-5.25-.06-3.5,2.85-6.73,6.06-6.72,2.74,0,4.85,2.26,4.9,5.24.06,3.46-2.84,6.68-6.08,6.72Z"/>
      <path class="cls-44" d="M119.28,36.45c-.07-2.94,2-5.08,4.97-5.12,2.85-.04,6.76,3.11,6.75,5.45,0,1.53-4.77,6.06-6.5,6.19-2.15.16-5.14-3.57-5.21-6.52Z"/>
      <path class="cls-47" d="M8.79,77.84c2.78.07,5.14,2.7,5.02,5.58-.13,3.11-2.9,5.76-5.88,5.61-2.71-.14-4.81-2.5-4.79-5.39.02-3.18,2.64-5.88,5.64-5.8Z"/>
      <path class="cls-3" d="M174.04,194.78c-2.77.03-5.4-2.7-5.45-5.66-.05-2.68,1.85-4.86,4.33-4.96,2.91-.12,5.63,2.7,5.61,5.81-.02,2.68-1.98,4.78-4.48,4.81Z"/>
      <path class="cls-7" d="M188.68,169.96c-2.65-.04-4.84-2.52-4.76-5.39.07-2.76,2.25-5.05,4.76-5.02,2.65.03,4.78,2.47,4.73,5.4-.05,2.77-2.2,5.05-4.72,5.01Z"/>
      <path class="cls-34" d="M87.04,211.65c.01-2.36,2.15-4.44,4.56-4.43,1.96,0,4.92,3.29,4.41,5.48-.51,2.14-.9,4.9-3.44,5.65-2.01.59-5.54-3.97-5.53-6.71Z"/>
      <path class="cls-32" d="M114.89,4.98c-.23,2.22-1.45,3.84-4.13,3.98-2.61.14-5.12-2.1-5.08-4.66.05-2.57,1.4-4.17,4.08-4.3,2.64-.13,5.05,2.11,5.13,4.97Z"/>
      <path class="cls-13" d="M218.05,141.84c-.05,2.45-2.07,4.35-4.55,4.28-2.44-.07-4.4-2.17-4.17-4.62.25-2.57,1.77-4.01,4.35-4.11,2.44-.09,4.41,2,4.36,4.45Z"/>
      <path class="cls-49" d="M114.41,188.69c-.15,2.44-1.82,3.81-4.29,3.94-2.45.13-4.39-.93-4.65-3.72-.22-2.39,1.83-4.42,4.39-4.48,2.38-.06,4.48,1.79,4.55,4.26Z"/>
      <path class="cls-6" d="M226.1,196.53c-2.5-.25-3.93-1.7-3.85-4.14.08-2.46,1.7-3.96,4.13-3.88,2.44.08,3.92,1.64,3.84,4.14-.08,2.5-1.6,3.78-4.12,3.88Z"/>
      <path class="cls-39" d="M36.17,174.12c.3-2.16,1.15-4.29,3.85-4.46,2.29-.14,3.31,1.51,3.44,3.66.16,2.59-1.75,4.92-3.94,4.89-1.82-.02-3.31-1.75-3.35-4.1Z"/>
      <path class="cls-22" d="M36.12,154.03c.33-2.14,1.04-4.15,3.54-4.16,2.48-.01,3.49,1.9,3.46,4.09-.03,2.17-1.02,4.1-3.47,4.15-2.52.05-3.24-1.94-3.53-4.08Z"/>
      <path class="cls-5" d="M197.76,31.99c2.29.34,4.02,1.59,4.11,4.21.07,2.12-1.31,3.34-3.38,3.23-2.54-.14-4.16-1.7-4.3-4.23-.12-2.11,1.25-3.19,3.57-3.21Z"/>
      <path class="cls-4" d="M145.64,48.74c.26-2.34,1.63-3.66,3.94-3.53,2.14.13,3.5,1.51,3.41,3.72-.09,2.35-1.59,3.64-3.92,3.54-2.22-.1-3.3-1.52-3.43-3.73Z"/>
      <path class="cls-5" d="M148.32,28.76c-2.25-.3-3.57-1.55-3.53-3.74.04-2.2,1.38-3.55,3.61-3.49,2.21.06,3.52,1.42,3.48,3.64-.05,2.22-1.46,3.35-3.56,3.59Z"/>
      <path class="cls-23" d="M140.02,5.73c-.31,2.11-1.4,3.41-3.58,3.15-2.52-.31-3.66-2.03-3.53-4.46.1-1.97,1.35-3.14,3.31-2.96,2.49.23,3.64,1.9,3.8,4.28Z"/>
      <path class="cls-12" d="M210.89,114.16c-2.09-.23-3.63-1.05-3.65-3.23-.02-2.07,1.47-2.95,3.3-2.93,1.98.02,3.48,1.02,3.53,3.17.04,2.1-1.51,2.74-3.19,2.99Z"/>
      <path class="cls-16" d="M121.84,247.15c.09-1.76.74-3.21,2.68-3.18,1.98.03,3.05,1.56,3.13,3.32.11,2.37-2.17,2.27-3.62,2.55-1.95.38-1.76-1.51-2.18-2.69Z"/>
      <path class="cls-36" d="M61.91,54.77c-.18,1.7-1.03,2.91-2.84,2.99-1.79.08-2.93-.93-3.03-2.75-.1-1.83.93-2.93,2.73-3.02,1.81-.09,2.8,1.01,3.14,2.78Z"/>
      <path class="cls-2" d="M163.19,195.55c-.34,1.9-1.44,3.29-3.57,3.57-1.22.16-1.91-.65-1.8-1.8.21-2.08,1.4-3.47,3.52-3.75,1.2-.16,1.77.67,1.84,1.99Z"/>
      <path class="cls-18" d="M48.06,134c1.64.3,2.75,1.26,2.82,3.05.05,1.42-.74,2.37-2.22,2.26-1.78-.13-2.83-1.26-2.91-3.01-.06-1.4.72-2.26,2.3-2.3Z"/>
      <path class="cls-25" d="M5.95,116.65c1.35.22,1.88,1.11,1.87,2.32,0,1.32-.79,2.08-2.07,2.03-1.37-.05-1.82-1.11-1.83-2.3-.02-1.32.76-1.98,2.03-2.06Z"/>
      <path class="cls-17" d="M60.21,203.97c-.26,1.68-1.65,1.75-2.76,1.94-1.47.25-1.49-.99-1.52-1.98-.03-1.22.36-2.3,1.79-2.27,1.42.03,1.98,1.2,2.49,2.3Z"/>
      <path class="cls-15" d="M29.33,191.59c-.91,1.23-1.01,3.14-2.7,3.47-.91.18-1.38-1.03-1.33-1.92.1-1.61.98-2.64,2.68-2.72.75-.04,1.16.42,1.34,1.18Z"/>
    </g>
  </g>
</svg>